<svg width="114" height="30" viewBox="0 0 114 30" fill="none" xmlns="http://www.w3.org/2000/svg">
<path d="M43.3 23.16C42.2867 23.16 41.32 23.02 40.4 22.74C39.4933 22.46 38.7667 22.0733 38.22 21.58C37.9667 21.3667 37.84 21.0933 37.84 20.76C37.84 20.52 37.9067 20.32 38.04 20.16C38.1733 19.9867 38.3333 19.9 38.52 19.9C38.7067 19.9 38.9333 19.9867 39.2 20.16C40.3867 21.04 41.74 21.48 43.26 21.48C44.3267 21.48 45.1467 21.28 45.72 20.88C46.2933 20.48 46.58 19.9067 46.58 19.16C46.58 18.5733 46.3133 18.1333 45.78 17.84C45.2467 17.5467 44.3933 17.2667 43.22 17C42.1 16.76 41.18 16.4867 40.46 16.18C39.74 15.8733 39.1733 15.46 38.76 14.94C38.36 14.4067 38.16 13.7333 38.16 12.92C38.16 12.1067 38.38 11.3867 38.82 10.76C39.2733 10.12 39.9 9.62667 40.7 9.28C41.5 8.92 42.4133 8.74 43.44 8.74C44.3867 8.74 45.26 8.87333 46.06 9.14C46.86 9.40667 47.54 9.8 48.1 10.32C48.3667 10.5467 48.5 10.82 48.5 11.14C48.5 11.3667 48.4267 11.5667 48.28 11.74C48.1467 11.9133 47.9867 12 47.8 12C47.6267 12 47.4067 11.9133 47.14 11.74C46.5267 11.2733 45.9467 10.94 45.4 10.74C44.8667 10.5267 44.22 10.42 43.46 10.42C42.4333 10.42 41.6333 10.6333 41.06 11.06C40.4867 11.4733 40.2 12.0533 40.2 12.8C40.2 13.44 40.4533 13.9267 40.96 14.26C41.4667 14.58 42.28 14.8733 43.4 15.14C44.5733 15.4067 45.52 15.6867 46.24 15.98C46.9733 16.26 47.5533 16.6533 47.98 17.16C48.42 17.6533 48.64 18.2933 48.64 19.08C48.64 19.88 48.4133 20.5933 47.96 21.22C47.52 21.8333 46.8933 22.3133 46.08 22.66C45.28 22.9933 44.3533 23.16 43.3 23.16ZM52.1991 23C51.8791 23 51.6257 22.9133 51.4391 22.74C51.2657 22.5533 51.1791 22.3067 51.1791 22V9.9C51.1791 9.59333 51.2657 9.35333 51.4391 9.18C51.6257 8.99333 51.8791 8.9 52.1991 8.9H59.5591C59.8657 8.9 60.0991 8.97333 60.2591 9.12C60.4324 9.26667 60.5191 9.47333 60.5191 9.74C60.5191 10.0067 60.4324 10.2133 60.2591 10.36C60.0991 10.4933 59.8657 10.56 59.5591 10.56H53.1991V15H59.1591C59.4657 15 59.6991 15.0733 59.8591 15.22C60.0324 15.3667 60.1191 15.5733 60.1191 15.84C60.1191 16.1067 60.0324 16.3133 59.8591 16.46C59.6991 16.6067 59.4657 16.68 59.1591 16.68H53.1991V21.34H59.5591C60.1991 21.34 60.5191 21.6133 60.5191 22.16C60.5191 22.4267 60.4324 22.6333 60.2591 22.78C60.0991 22.9267 59.8657 23 59.5591 23H52.1991ZM73.8783 21.72C73.9983 21.8933 74.0583 22.08 74.0583 22.28C74.0583 22.52 73.9583 22.7267 73.7583 22.9C73.5716 23.06 73.3516 23.14 73.0983 23.14C72.7249 23.14 72.4249 22.9733 72.1983 22.64L69.5183 18.48C69.2116 18 68.8849 17.6667 68.5383 17.48C68.1916 17.28 67.7383 17.18 67.1783 17.18H64.9183V22.06C64.9183 22.38 64.8249 22.6333 64.6383 22.82C64.4649 23.0067 64.2183 23.1 63.8983 23.1C63.5916 23.1 63.3449 23.0067 63.1583 22.82C62.9716 22.6333 62.8783 22.38 62.8783 22.06V9.9C62.8783 9.59333 62.9649 9.35333 63.1383 9.18C63.3249 8.99333 63.5783 8.9 63.8983 8.9H68.8783C70.4383 8.9 71.6249 9.24667 72.4383 9.94C73.2649 10.6333 73.6783 11.6467 73.6783 12.98C73.6783 14.0867 73.3649 14.9867 72.7383 15.68C72.1116 16.36 71.2183 16.7933 70.0583 16.98C70.4049 17.0733 70.7183 17.24 70.9983 17.48C71.2783 17.72 71.5516 18.0533 71.8183 18.48L73.8783 21.72ZM68.6383 15.52C69.6783 15.52 70.4449 15.32 70.9383 14.92C71.4449 14.5067 71.6983 13.8733 71.6983 13.02C71.6983 12.1667 71.4516 11.5467 70.9583 11.16C70.4649 10.76 69.6916 10.56 68.6383 10.56H64.8983V15.52H68.6383ZM77.7069 23C77.3869 23 77.1335 22.9133 76.9469 22.74C76.7735 22.5533 76.6869 22.3067 76.6869 22V9.9C76.6869 9.59333 76.7735 9.35333 76.9469 9.18C77.1335 8.99333 77.3869 8.9 77.7069 8.9H85.0669C85.3735 8.9 85.6069 8.97333 85.7669 9.12C85.9402 9.26667 86.0269 9.47333 86.0269 9.74C86.0269 10.0067 85.9402 10.2133 85.7669 10.36C85.6069 10.4933 85.3735 10.56 85.0669 10.56H78.7069V15H84.6669C84.9735 15 85.2069 15.0733 85.3669 15.22C85.5402 15.3667 85.6269 15.5733 85.6269 15.84C85.6269 16.1067 85.5402 16.3133 85.3669 16.46C85.2069 16.6067 84.9735 16.68 84.6669 16.68H78.7069V21.34H85.0669C85.7069 21.34 86.0269 21.6133 86.0269 22.16C86.0269 22.4267 85.9402 22.6333 85.7669 22.78C85.6069 22.9267 85.3735 23 85.0669 23H77.7069ZM98.9861 8.8C99.2794 8.8 99.5128 8.9 99.6861 9.1C99.8728 9.28667 99.9661 9.53333 99.9661 9.84V22.06C99.9661 22.3667 99.8728 22.62 99.6861 22.82C99.4994 23.0067 99.2594 23.1 98.9661 23.1C98.6194 23.1 98.3528 22.9667 98.1661 22.7L90.3261 12.36V22.06C90.3261 22.3667 90.2328 22.62 90.0461 22.82C89.8728 23.0067 89.6394 23.1 89.3461 23.1C89.0528 23.1 88.8194 23.0067 88.6461 22.82C88.4728 22.6333 88.3861 22.38 88.3861 22.06V9.84C88.3861 9.53333 88.4794 9.28667 88.6661 9.1C88.8528 8.9 89.0928 8.8 89.3861 8.8C89.7328 8.8 89.9994 8.93333 90.1861 9.2L98.0261 19.56V9.84C98.0261 9.53333 98.1128 9.28667 98.2861 9.1C98.4594 8.9 98.6928 8.8 98.9861 8.8ZM104.269 23C103.949 23 103.696 22.9133 103.509 22.74C103.336 22.5533 103.249 22.3067 103.249 22V9.9C103.249 9.59333 103.336 9.35333 103.509 9.18C103.696 8.99333 103.949 8.9 104.269 8.9H111.629C111.936 8.9 112.169 8.97333 112.329 9.12C112.503 9.26667 112.589 9.47333 112.589 9.74C112.589 10.0067 112.503 10.2133 112.329 10.36C112.169 10.4933 111.936 10.56 111.629 10.56H105.269V15H111.229C111.536 15 111.769 15.0733 111.929 15.22C112.103 15.3667 112.189 15.5733 112.189 15.84C112.189 16.1067 112.103 16.3133 111.929 16.46C111.769 16.6067 111.536 16.68 111.229 16.68H105.269V21.34H111.629C112.269 21.34 112.589 21.6133 112.589 22.16C112.589 22.4267 112.503 22.6333 112.329 22.78C112.169 22.9267 111.936 23 111.629 23H104.269Z" fill="#96772C"/>
<path d="M2.33975 16L11 1L19.6603 16H2.33975Z" stroke="#96772C"/>
<rect x="1.96655" y="16.6333" width="18.0667" height="9.26667" stroke="#96772C"/>
</svg>
